<svg width="148" height="29" viewBox="0 0 148 29" fill="none" xmlns="http://www.w3.org/2000/svg">
<path opacity="0.9" d="M13.075 7.03839C13.4578 6.27277 14.5424 6.30467 14.8933 7.03839L16.9988 11.2812L21.6563 11.9512C22.4858 12.0788 22.8048 13.0996 22.1987 13.7057L18.8491 16.9915L19.6466 21.6172C19.7742 22.4466 18.881 23.0846 18.1472 22.7018L14.0001 20.5006L9.82106 22.7018C9.08734 23.0846 8.19411 22.4466 8.32171 21.6172L9.11924 16.9915L5.76963 13.7057C5.16351 13.0996 5.48252 12.0788 6.31195 11.9512L11.0014 11.2812L13.075 7.03839Z" fill="#FF9A60"/>
<path opacity="0.9" d="M43.075 7.03839C43.4578 6.27277 44.5424 6.30467 44.8933 7.03839L46.9988 11.2812L51.6563 11.9512C52.4858 12.0788 52.8048 13.0996 52.1987 13.7057L48.8491 16.9915L49.6466 21.6172C49.7742 22.4466 48.881 23.0846 48.1472 22.7018L44.0001 20.5006L39.8211 22.7018C39.0873 23.0846 38.1941 22.4466 38.3217 21.6172L39.1192 16.9915L35.7696 13.7057C35.1635 13.0996 35.4825 12.0788 36.3119 11.9512L41.0014 11.2812L43.075 7.03839Z" fill="#FF9A60"/>
<path opacity="0.9" d="M73.075 7.03839C73.4578 6.27277 74.5424 6.30467 74.8933 7.03839L76.9988 11.2812L81.6563 11.9512C82.4858 12.0788 82.8048 13.0996 82.1987 13.7057L78.8491 16.9915L79.6466 21.6172C79.7742 22.4466 78.881 23.0846 78.1472 22.7018L74.0001 20.5006L69.8211 22.7018C69.0873 23.0846 68.1941 22.4466 68.3217 21.6172L69.1192 16.9915L65.7696 13.7057C65.1635 13.0996 65.4825 12.0788 66.3119 11.9512L71.0014 11.2812L73.075 7.03839Z" fill="#FF9A60"/>
<path opacity="0.9" d="M103.075 7.03839C103.458 6.27277 104.542 6.30467 104.893 7.03839L106.999 11.2812L111.656 11.9512C112.486 12.0788 112.805 13.0996 112.199 13.7057L108.849 16.9915L109.647 21.6172C109.774 22.4466 108.881 23.0846 108.147 22.7018L104 20.5006L99.8211 22.7018C99.0873 23.0846 98.1941 22.4466 98.3217 21.6172L99.1192 16.9915L95.7696 13.7057C95.1635 13.0996 95.4825 12.0788 96.3119 11.9512L101.001 11.2812L103.075 7.03839Z" fill="#FF9A60"/>
<path opacity="0.9" d="M133.075 7.03839C133.458 6.27277 134.542 6.30467 134.893 7.03839L136.999 11.2812L141.656 11.9512C142.486 12.0788 142.805 13.0996 142.199 13.7057L138.849 16.9915L139.647 21.6172C139.774 22.4466 138.881 23.0846 138.147 22.7018L134 20.5006L129.821 22.7018C129.087 23.0846 128.194 22.4466 128.322 21.6172L129.119 16.9915L125.77 13.7057C125.164 13.0996 125.483 12.0788 126.312 11.9512L131.001 11.2812L133.075 7.03839Z" fill="#FF9A60"/>
</svg>
